<svg xmlns="http://www.w3.org/2000/svg" viewBox="0 0 256 128"><defs><style>.cls-1{fill:#fff;}</style></defs><title>logo324_58</title><g id="logo324_58"><path class="cls-1" d="M54.7,40.77H39v4.51H51.4c0-.05,0,10.72,0,10.72H39.13a.34.34,0,0,0-.13.1V58c2,2.45,12.51,7.67,12.51,15.41,0,7.29-8.16,9.48-8.16,9.48H39v4.51H54.7a7.19,7.19,0,0,0,7.18-7.18V47.94A7.18,7.18,0,0,0,54.7,40.77Z"/><path class="cls-1" d="M23.19,82.92V72.13h12a.57.57,0,0,0,.18-.13V70.53c-1.8-2.26-12.52-7.09-12.52-15.39,0-7.86,8.44-9.86,9.58-9.86h2.94V40.77H19.7a7.18,7.18,0,0,0-7.18,7.17V80.25a7.19,7.19,0,0,0,7.18,7.18H35.41V82.92Z"/><path class="cls-1" d="M72.64,70.1H82v2.83q0,3.5,3,3.49a3.14,3.14,0,0,0,2.25-.81,2.69,2.69,0,0,0,.85-2q0-2.24-3.23-4.36-2.19-1.4-4.38-2.83a33.76,33.76,0,0,1-4.11-3.05,9.16,9.16,0,0,1-3.28-7.27,8.07,8.07,0,0,1,3.44-7q3.24-2.26,8.83-2.27,11.64,0,11.64,8.89v2.87H88.16v-2.4q0-3.25-3-3.26a2.74,2.74,0,0,0-2,.74,2.48,2.48,0,0,0-.73,1.83q0,2,6.46,6.4c2,1.39,3.5,2.47,4.48,3.22a13.35,13.35,0,0,1,2.76,2.75,9.52,9.52,0,0,1,1.45,5.27,8.31,8.31,0,0,1-3.59,7.23c-2.22,1.54-5.26,2.3-9.11,2.3q-12.19,0-12.19-9.93Z"/><path class="cls-1" d="M125.7,82.17V60h-2.1V54.68h2.1V54.2q0-3.83,1.4-5.31,1.6-1.61,5.87-1.61h3.35v5h-.2a2.77,2.77,0,0,0-1.78.42,2,2,0,0,0-.47,1.54v.39h2.45V60H134V82.17Z"/><path class="cls-1" d="M221.08,82.17V47.28h8.47V82.17Z"/><path class="cls-1" d="M234.06,82.17V47.28h8.46V82.17Z"/><path class="cls-1" d="M112.82,79.64a9.78,9.78,0,0,1-6.54,2.64,6.56,6.56,0,0,1-5.22-2.09,7.14,7.14,0,0,1-1.63-4.9V73q0-5.53,6.2-8c.87-.33,2.21-.89,4-1.66s2.73-1.81,2.73-3.11v-1a1.78,1.78,0,0,0-.57-1.32,2,2,0,0,0-1.44-.54c-1.42,0-2.12.94-2.12,2.81V61.9H100V60.08A7,7,0,0,1,103,54a13.47,13.47,0,0,1,7.58-1.87c3.63,0,6.3.67,8,2s2.58,3.54,2.58,6.63v21H113Zm-.42-12.43a12.91,12.91,0,0,0-3,1.77,3.89,3.89,0,0,0-1.15,2.9v3a13.13,13.13,0,0,0,0,1.55,1.42,1.42,0,0,0,1.57,1.13q2.51,0,2.51-3.63Z"/><path class="cls-1" d="M147.07,74.29c0,1.6.66,2.4,2,2.4s2-.8,2-2.4V70.88h9V73.2q0,9.08-11,9.08T138.13,73.2v-12q0-9.08,10.93-9.08t11,9.08v7.31h-13Zm0-14.21v3.09h4V60.08q0-2.4-2-2.4C147.73,57.68,147.07,58.48,147.07,60.08Z"/><path class="cls-1" d="M166,81.55,159.65,52h9.21l2.5,22,.89-9.19L173.77,52H182l2.14,22,1.15-9.56L186.94,52H196L189.5,81.55H180l-2.4-20.21q-.27,2.91-.94,8.67l-1.47,11.54Z"/><path class="cls-1" d="M205.08,74.29q0,2.4,2,2.4c1.33,0,2-.8,2-2.4V70.88h9V73.2q0,9.08-11,9.08T196.14,73.2v-12q0-9.08,10.92-9.08t11,9.08v7.31h-13Zm0-14.21v3.09h4V60.08c0-1.6-.66-2.4-2-2.4S205.08,58.48,205.08,60.08Z"/></g></svg>