<svg id="ic_launcher" xmlns="http://www.w3.org/2000/svg" viewBox="0 0 96 96"><defs><style>.cls-1{fill:#fff;}.cls-2{fill:#014898;}</style></defs><title>ic_launcher</title><rect class="cls-1" x="2" y="5.09" width="92" height="86.75" rx="13"/><path class="cls-2" d="M80.62,5H51.35v8.41H74.46c-.08-.08.08,20,.08,20h-23a.74.74,0,0,0-.24.17V37.2C55,41.77,74.68,51.5,74.68,65.92c0,13.6-15.21,17.67-15.21,17.67H51.35V92H80.62A13.38,13.38,0,0,0,94,78.62V18.4A13.38,13.38,0,0,0,80.62,5Z"/><path class="cls-2" d="M21.88,83.59V63.49H44.33a.85.85,0,0,0,.32-.24V60.51c-3.34-4.23-23.33-13.22-23.33-28.69,0-14.65,15.73-18.39,17.86-18.39h5.47V5H15.38A13.38,13.38,0,0,0,2,18.4V78.62A13.38,13.38,0,0,0,15.38,92H44.65V83.59Z"/></svg>