<svg xmlns="http://www.w3.org/2000/svg" viewBox="0 0 300 300"><defs><style>.cls-1{fill:#014898;}</style></defs><title>logo300_300</title><g id="logo300_300"><path class="cls-1" d="M199.64,83.82H155.09v12.8h35.18c-.13-.13.12,30.42.12,30.42H155.46a1,1,0,0,0-.37.26v5.49c5.62,7,35.51,21.76,35.51,43.7,0,20.69-23.15,26.89-23.15,26.89H155.09v12.8h44.55A20.37,20.37,0,0,0,220,195.82V104.18A20.37,20.37,0,0,0,199.64,83.82Z"/><path class="cls-1" d="M110.26,203.38V172.8h34.16a1.5,1.5,0,0,0,.49-.37v-4.18c-5.1-6.42-35.51-20.1-35.51-43.65,0-22.3,23.94-28,27.17-28h8.34V83.82H100.36A20.37,20.37,0,0,0,80,104.18v91.64a20.37,20.37,0,0,0,20.36,20.36h44.55v-12.8Z"/></g></svg>