<svg xmlns="http://www.w3.org/2000/svg" viewBox="0 0 324 58"><defs><style>.cls-1{fill:#fff;}</style></defs><title>logo324_58</title><g id="logo324_58"><path class="cls-1" d="M98.67,8.71H85v3.93H95.8s0,9.32,0,9.32H85.13A.37.37,0,0,0,85,22v1.68c1.72,2.14,10.88,6.67,10.88,13.4,0,6.34-7.09,8.24-7.09,8.24H85v3.93H98.67a6.25,6.25,0,0,0,6.25-6.24V15A6.25,6.25,0,0,0,98.67,8.71Z"/><path class="cls-1" d="M71.28,45.36V36H81.75a.48.48,0,0,0,.15-.12V34.6C80.34,32.63,71,28.43,71,21.21c0-6.83,7.34-8.57,8.33-8.57H81.9V8.71H68.24A6.24,6.24,0,0,0,62,15v28.1a6.24,6.24,0,0,0,6.24,6.24H81.9V45.36Z"/><path class="cls-1" d="M114.27,34.22h8.15v2.46c0,2,.89,3,2.65,3a2.74,2.74,0,0,0,2-.7,2.32,2.32,0,0,0,.74-1.76q0-1.94-2.81-3.79-1.9-1.2-3.8-2.46a29.24,29.24,0,0,1-3.58-2.65A8,8,0,0,1,114.72,22a7,7,0,0,1,3-6.1,13.2,13.2,0,0,1,7.67-2q10.12,0,10.12,7.73v2.5h-7.74V22.1c0-1.89-.87-2.84-2.61-2.84a2.4,2.4,0,0,0-1.78.65,2.16,2.16,0,0,0-.64,1.59c0,1.13,1.87,3,5.62,5.56,1.75,1.22,3,2.15,3.89,2.81a11.37,11.37,0,0,1,2.4,2.38,8.25,8.25,0,0,1,1.27,4.58,7.22,7.22,0,0,1-3.12,6.29,13.75,13.75,0,0,1-7.93,2q-10.61,0-10.6-8.64Z"/><path class="cls-1" d="M160.42,44.71V25.44h-1.83V20.81h1.83V20.4c0-2.22.4-3.76,1.22-4.62s2.62-1.4,5.09-1.4h2.92v4.39h-.17a2.44,2.44,0,0,0-1.55.36,1.72,1.72,0,0,0-.41,1.34v.34h2.13v4.63h-2V44.71Z"/><path class="cls-1" d="M243.35,44.71V14.38h7.37V44.71Z"/><path class="cls-1" d="M254.64,44.71V14.38H262V44.71Z"/><path class="cls-1" d="M149.21,42.52a8.5,8.5,0,0,1-5.68,2.29A5.73,5.73,0,0,1,139,43a6.24,6.24,0,0,1-1.41-4.26v-2q0-4.82,5.39-7,1.14-.43,3.51-1.44c1.59-.67,2.38-1.57,2.38-2.7v-.91a1.51,1.51,0,0,0-.5-1.14,1.71,1.71,0,0,0-1.25-.48c-1.23,0-1.84.82-1.84,2.45v1.58h-7.19V25.51a6.06,6.06,0,0,1,2.64-5.33,11.68,11.68,0,0,1,6.59-1.62q4.72,0,7,1.74t2.25,5.76V44.34h-7.18Zm-.36-10.81a11.05,11.05,0,0,0-2.59,1.54,3.37,3.37,0,0,0-1,2.52v2.57a10.77,10.77,0,0,0,0,1.34,1.23,1.23,0,0,0,1.37,1c1.45,0,2.18-1.06,2.18-3.16Z"/><path class="cls-1" d="M179,37.86c0,1.4.57,2.1,1.72,2.1s1.73-.7,1.73-2.1v-3h7.82v2q0,7.89-9.55,7.89t-9.5-7.89V26.46q0-7.89,9.5-7.9t9.55,7.9v6.35H179Zm0-12.35v2.68h3.45V25.51c0-1.39-.57-2.09-1.73-2.09S179,24.12,179,25.51Z"/><path class="cls-1" d="M195.49,44.18l-5.55-25.73h8l2.18,19.11.77-8,1.32-11.12h7.14l1.86,19.11,1-8.31,1.46-10.8h7.86L215.9,44.18h-8.23L205.58,26.6c-.16,1.69-.43,4.2-.82,7.55l-1.27,10Z"/><path class="cls-1" d="M229.44,37.86c0,1.4.57,2.1,1.73,2.1s1.72-.7,1.72-2.1v-3h7.82v2q0,7.89-9.54,7.89t-9.5-7.89V26.46q0-7.89,9.5-7.9t9.54,7.9v6.35H229.44Zm0-12.35v2.68h3.45V25.51c0-1.39-.57-2.09-1.72-2.09S229.44,24.12,229.44,25.51Z"/></g></svg>