<svg xmlns="http://www.w3.org/2000/svg" viewBox="0 0 300 143"><defs><style>.cls-1{fill:#fff;}</style></defs><title>logo300_143</title><g id="logo300_143"><path class="cls-1" d="M74,49.31H57.62V54H70.56c0-.05,0,11.19,0,11.19H57.76a.41.41,0,0,0-.14.1v2c2.07,2.56,13.07,8,13.07,16.08,0,7.61-8.52,9.89-8.52,9.89H57.62V98H74a7.49,7.49,0,0,0,7.49-7.49V56.8A7.49,7.49,0,0,0,74,49.31Z"/><path class="cls-1" d="M41.13,93.29V82H53.7a.53.53,0,0,0,.18-.14V80.37C52,78,40.81,73,40.81,64.31c0-8.2,8.81-10.29,10-10.29h3.07V49.31H37.49A7.49,7.49,0,0,0,30,56.8V90.51A7.49,7.49,0,0,0,37.49,98H53.88V93.29Z"/><path class="cls-1" d="M92.73,79.92h9.78v3q0,3.64,3.18,3.64a3.26,3.26,0,0,0,2.34-.84,2.75,2.75,0,0,0,.89-2.11c0-1.55-1.12-3.06-3.37-4.55q-2.28-1.45-4.56-3a35.64,35.64,0,0,1-4.3-3.18,9.57,9.57,0,0,1-3.42-7.59A8.44,8.44,0,0,1,96.86,58c2.26-1.57,5.32-2.36,9.21-2.36q12.15,0,12.15,9.27v3h-9.3v-2.5q0-3.4-3.12-3.41a2.89,2.89,0,0,0-2.14.77,2.62,2.62,0,0,0-.77,1.91q0,2,6.74,6.68,3.15,2.19,4.67,3.36a13.74,13.74,0,0,1,2.88,2.87,9.88,9.88,0,0,1,1.53,5.5A8.66,8.66,0,0,1,115,90.6Q111.48,93,105.44,93q-12.7,0-12.71-10.36Z"/><path class="cls-1" d="M148.1,92.51V69.38h-2.2V63.83h2.2v-.5q0-4,1.46-5.54,1.68-1.68,6.12-1.68h3.5v5.27H159a2.9,2.9,0,0,0-1.85.43,2.05,2.05,0,0,0-.5,1.61v.41h2.56v5.55h-2.4V92.51Z"/><path class="cls-1" d="M247.62,92.51V56.11h8.84v36.4Z"/><path class="cls-1" d="M261.16,92.51V56.11H270v36.4Z"/><path class="cls-1" d="M134.65,89.88a10.22,10.22,0,0,1-6.81,2.75,6.87,6.87,0,0,1-5.46-2.18,7.51,7.51,0,0,1-1.69-5.12V82.92q0-5.78,6.46-8.39c.91-.34,2.31-.92,4.21-1.72s2.86-1.89,2.86-3.25V68.47a1.85,1.85,0,0,0-.59-1.37,2.1,2.1,0,0,0-1.51-.57c-1.48,0-2.21,1-2.21,2.94v1.89h-8.62V69.47a7.28,7.28,0,0,1,3.16-6.4,14.09,14.09,0,0,1,7.91-1.94c3.78,0,6.58.7,8.38,2.09s2.7,3.69,2.7,6.91V92.06h-8.62Zm-.43-13a13.64,13.64,0,0,0-3.11,1.85,4.08,4.08,0,0,0-1.2,3v3.08a14.14,14.14,0,0,0,.05,1.61,1.47,1.47,0,0,0,1.64,1.18c1.74,0,2.62-1.26,2.62-3.78Z"/><path class="cls-1" d="M170.4,84.29c0,1.67.69,2.51,2.07,2.51s2.07-.84,2.07-2.51V80.74h9.38v2.41q0,9.48-11.45,9.48t-11.4-9.48V70.6q0-9.46,11.4-9.47t11.45,9.47v7.63H170.4Zm0-14.82v3.22h4.14V69.47c0-1.68-.69-2.51-2.07-2.51S170.4,67.79,170.4,69.47Z"/><path class="cls-1" d="M190.18,91.87,183.53,61h9.6l2.62,22.92.92-9.58L198.26,61h8.56l2.24,22.92,1.2-10L212,61h9.44l-6.77,30.87H204.8l-2.51-21.09q-.27,3-1,9l-1.53,12Z"/><path class="cls-1" d="M230.93,84.29c0,1.67.69,2.51,2.07,2.51s2.07-.84,2.07-2.51V80.74h9.38v2.41q0,9.48-11.45,9.48t-11.4-9.48V70.6q0-9.46,11.4-9.47t11.45,9.47v7.63H230.93Zm0-14.82v3.22h4.14V69.47c0-1.68-.69-2.51-2.07-2.51S230.93,67.79,230.93,69.47Z"/></g></svg>