<svg xmlns="http://www.w3.org/2000/svg" viewBox="0 0 16 16"><defs><style>.cls-1{fill:#fff;}</style></defs><title>state-offline</title><g id="state-offline"><path class="cls-1" d="M13.67.54H8.58V2h4s0,3.48,0,3.48h-4l0,0v.63c.64.79,4.06,2.48,4.06,5S10,14.2,10,14.2H8.58v1.47h5.09A2.33,2.33,0,0,0,16,13.34V2.87A2.33,2.33,0,0,0,13.67.54Z"/><path class="cls-1" d="M3.46,14.2V10.71h3.9l.06,0v-.48c-.58-.73-4.06-2.3-4.06-5S6.1,2,6.47,2h1V.54H2.33A2.33,2.33,0,0,0,0,2.87V13.34a2.33,2.33,0,0,0,2.33,2.33H7.42V14.2Z"/></g></svg>