<svg xmlns="http://www.w3.org/2000/svg" viewBox="0 0 256 128"><defs><style>.cls-1{fill:#fff;}</style></defs><title>logo-256</title><g id="logo-256"><path class="cls-1" d="M58.34,41.68h-15V46H55.18s0,10.26,0,10.26H43.44a.41.41,0,0,0-.12.09V58.2c1.89,2.34,12,7.33,12,14.73,0,7-7.81,9.07-7.81,9.07H43.32v4.32h15a6.88,6.88,0,0,0,6.87-6.87V48.55A6.88,6.88,0,0,0,58.34,41.68Z"/><path class="cls-1" d="M28.2,82V71.69H39.72a.49.49,0,0,0,.17-.13v-1.4c-1.72-2.17-12-6.78-12-14.73C27.91,47.92,36,46,37.08,46h2.81V41.68h-15A6.87,6.87,0,0,0,18,48.55v30.9a6.87,6.87,0,0,0,6.87,6.87h15V82Z"/><path class="cls-1" d="M75.5,69.74h9v2.71q0,3.33,2.91,3.33A3,3,0,0,0,89.53,75a2.56,2.56,0,0,0,.82-1.93q0-2.13-3.09-4.17c-1.4-.89-2.79-1.79-4.19-2.71a31.37,31.37,0,0,1-3.93-2.91,8.76,8.76,0,0,1-3.14-7,7.73,7.73,0,0,1,3.29-6.71q3.1-2.16,8.44-2.16,11.13,0,11.14,8.49V58.7H90.35V56.41c0-2.08-1-3.12-2.87-3.12a2.61,2.61,0,0,0-2,.71,2.37,2.37,0,0,0-.7,1.75q0,1.88,6.17,6.12,2.9,2,4.29,3.08a12.69,12.69,0,0,1,2.64,2.63,9.08,9.08,0,0,1,1.39,5,7.93,7.93,0,0,1-3.43,6.91c-2.13,1.48-5,2.21-8.72,2.21q-11.67,0-11.66-9.5Z"/><path class="cls-1" d="M126.26,81.28V60.08h-2V55h2v-.46c0-2.45.44-4.14,1.34-5.08s2.89-1.55,5.61-1.55h3.21v4.84h-.2a2.72,2.72,0,0,0-1.7.39,1.94,1.94,0,0,0-.45,1.48V55h2.35v5.08h-2.21v21.2Z"/><path class="cls-1" d="M217.49,81.28V47.91h8.1V81.28Z"/><path class="cls-1" d="M229.9,81.28V47.91H238V81.28Z"/><path class="cls-1" d="M113.93,78.87a9.34,9.34,0,0,1-6.25,2.52,6.28,6.28,0,0,1-5-2,6.89,6.89,0,0,1-1.55-4.69V72.49q0-5.3,5.93-7.68c.83-.32,2.11-.85,3.86-1.59s2.61-1.73,2.61-3v-1A1.69,1.69,0,0,0,113,58a1.89,1.89,0,0,0-1.38-.52c-1.35,0-2,.9-2,2.69V61.9h-7.9V60.16a6.67,6.67,0,0,1,2.9-5.86,12.85,12.85,0,0,1,7.25-1.78q5.2,0,7.68,1.91c1.65,1.27,2.47,3.39,2.47,6.34v20.1h-7.9ZM113.53,67a12.31,12.31,0,0,0-2.85,1.69,3.74,3.74,0,0,0-1.1,2.78v2.82a12.06,12.06,0,0,0,0,1.48,1.35,1.35,0,0,0,1.5,1.08c1.6,0,2.4-1.16,2.4-3.47Z"/><path class="cls-1" d="M146.7,73.75c0,1.53.63,2.3,1.9,2.3s1.9-.77,1.9-2.3V70.49h8.6v2.22q0,8.69-10.5,8.68t-10.45-8.68V61.2q0-8.69,10.45-8.68t10.5,8.68v7H146.7Zm0-13.59v3h3.8v-3c0-1.53-.64-2.3-1.9-2.3S146.7,58.63,146.7,60.16Z"/><path class="cls-1" d="M164.83,80.7l-6.1-28.3h8.8l2.4,21,.85-8.78,1.45-12.23h7.85l2,21,1.11-9.14,1.6-11.87h8.65l-6.2,28.3h-9.06l-2.3-19.34c-.16,1.86-.46,4.62-.9,8.3l-1.4,11Z"/><path class="cls-1" d="M202.18,73.75c0,1.53.63,2.3,1.9,2.3s1.9-.77,1.9-2.3V70.49h8.6v2.22q0,8.69-10.5,8.68t-10.45-8.68V61.2q0-8.69,10.45-8.68t10.5,8.68v7h-12.4Zm0-13.59v3H206v-3c0-1.53-.63-2.3-1.9-2.3S202.18,58.63,202.18,60.16Z"/></g></svg>