<svg xmlns="http://www.w3.org/2000/svg" viewBox="0 0 1324 1324"><defs><style>.cls-1{fill:#014898;}</style></defs><title>Nextcloud-icon</title><g id="Nextcloud-icon"><path class="cls-1" d="M1131.42,37.17H710.15v121H1042.8c-1.17-1.16,1.16,287.71,1.16,287.71H713.64a9.62,9.62,0,0,0-3.49,2.5v51.85C763.24,566,1046,706.06,1046,913.59c0,195.69-219,254.32-219,254.32H710.15v121h421.27c106.36,0,192.58-86.22,192.58-192.58V229.75C1324,123.39,1237.78,37.17,1131.42,37.17Z"/><path class="cls-1" d="M286.15,1167.91V878.65H609.2a13,13,0,0,0,4.65-3.49V835.7C565.67,775,278,645.53,278,422.82,278,212,504.46,158.21,535,158.21h78.82v-121H192.58C86.22,37.17,0,123.39,0,229.75v866.62C0,1202.73,86.22,1289,192.58,1289H613.85v-121Z"/></g></svg>