<svg xmlns="http://www.w3.org/2000/svg" viewBox="0 0 266 266"><defs><style>.cls-1{fill:#fff;}</style></defs><title>wizard_logo@2x</title><g id="wizard_logo_2x" data-name="wizard_logo@2x"><path class="cls-1" d="M227.31,8.39H142.67V32.71H209.5c-.23-.24.24,57.8.24,57.8H143.37a2.05,2.05,0,0,0-.7.5v10.42c10.67,13.21,67.48,41.34,67.48,83,0,39.31-44,51.09-44,51.09H142.67v24.32h84.64A38.69,38.69,0,0,0,266,221.19V47.08A38.69,38.69,0,0,0,227.31,8.39Z"/><path class="cls-1" d="M57.49,235.56V177.45h64.9a2.71,2.71,0,0,0,.94-.7v-7.93c-9.68-12.2-67.48-38.21-67.48-82.95,0-42.36,45.5-53.16,51.64-53.16h15.84V8.39H38.69A38.69,38.69,0,0,0,0,47.08V221.19a38.69,38.69,0,0,0,38.69,38.69h84.64V235.56Z"/></g></svg>