<svg xmlns="http://www.w3.org/2000/svg" viewBox="0 0 132 132"><defs><style>.cls-1{fill:#fff;}</style></defs><title>wizard_logo</title><g id="wizard_logo"><path class="cls-1" d="M112.8,3.52h-42V15.58H104c-.11-.11.12,28.69.12,28.69H71.15a.93.93,0,0,0-.35.25v5.17c5.29,6.55,33.48,20.51,33.48,41.2,0,19.51-21.83,25.36-21.83,25.36H70.8v12.07h42a19.2,19.2,0,0,0,19.2-19.2V22.72A19.2,19.2,0,0,0,112.8,3.52Z"/><path class="cls-1" d="M28.53,116.25V87.41H60.74a1.38,1.38,0,0,0,.46-.35V83.13c-4.8-6.06-33.48-19-33.48-41.16,0-21,22.57-26.39,25.62-26.39H61.2V3.52h-42A19.2,19.2,0,0,0,0,22.72v86.4a19.2,19.2,0,0,0,19.2,19.2h42V116.25Z"/></g></svg>