<svg id="wizard-nextcloud_2x" data-name="wizard-nextcloud@2x" xmlns="http://www.w3.org/2000/svg" viewBox="0 0 200 200"><defs><style>.cls-1{fill:#014898;}</style></defs><title>wizard-nextcloud@2x</title><path class="cls-1" d="M170.91,6.61H107.27V24.9h50.25c-.17-.18.18,43.46.18,43.46H107.8a1.46,1.46,0,0,0-.53.37v7.84C115.29,86.5,158,107.65,158,139c0,29.56-33.08,38.42-33.08,38.42H107.27V195.7h63.64A29.08,29.08,0,0,0,200,166.61V35.7A29.09,29.09,0,0,0,170.91,6.61Z"/><path class="cls-1" d="M43.23,177.42v-43.7H92a2.05,2.05,0,0,0,.71-.53v-6C85.45,118.06,42,98.51,42,64.87c0-31.85,34.21-40,38.83-40H92.73V6.61H29.09A29.09,29.09,0,0,0,0,35.7V166.61A29.08,29.08,0,0,0,29.09,195.7H92.73V177.42Z"/></svg>